<svg viewBox="29.600332260131836 37.20000076293945 140.79954528808594 125.60003662109375" height="200" width="200" xmlns="http://www.w3.org/2000/svg" data-type="color" role="img" preserveAspectRatio="xMidYMid meet" style="">
    <g>
        <path d="M79.65 140.991l-4.236-4.229.374-.394c1.21-1.298 3.236-3.472 7.735-3.472h44.644c3.398-1.416 18.587-16.09 22.023-19.935 1.881-2.106 10.089-14.381 13.55-21.187-1.625-.93-4.397-1.571-7.641-.822-3.885.901-6.502 3.626-9.995 10.416a2.996 2.996 0 0 1-1.284 1.288l-13.734 7.118-2.762-5.309 12.894-6.683c3.556-6.723 7.156-11.178 13.526-12.655 7.03-1.627 12.739.993 15.065 4.121.636.854.768 1.981.35 2.958-2.92 6.816-13.14 22.1-15.497 24.739-.197.22-20.619 21.934-26.203 21.934H83.523c-1.89 0-2.438.588-3.348 1.565l-.525.547z" fill="#C6A105" data-color="1"></path>
        <path d="M122.468 120.933H95.506v-5.981h26.962c4.138 0 5.991-2.253 5.991-4.486s-1.853-4.486-5.991-4.486h-18.824c-2.12 0-3.996-1.434-6.167-3.094-1.504-1.149-3.775-2.887-4.966-2.887H77.532c-2.87 0-7.173 2.605-9.941 5.179l-11.907 11.887-4.236-4.229 11.983-11.962c3.44-3.204 9.134-6.857 14.101-6.857h14.979c3.221 0 6.084 2.189 8.608 4.119.905.692 2.275 1.739 2.778 1.889l18.571-.025c7.867 0 11.983 5.265 11.983 10.467s-4.116 10.466-11.983 10.466z" fill="#C6A105" data-color="1"></path>
        <path d="M68.545 162.8a2.99 2.99 0 0 1-2.118-.876l-35.949-35.886a2.986 2.986 0 0 1 0-4.229l14.979-14.952a2.998 2.998 0 0 1 4.236 0l35.949 35.886a2.986 2.986 0 0 1 0 4.229l-14.979 14.952a2.99 2.99 0 0 1-2.118.876zm-31.713-38.876l31.713 31.657 10.743-10.724L47.574 113.2l-10.742 10.724z" fill="#C6A105" data-color="1"></path>
        <path fill="#C6A105" d="M51.448 132.019l-5.992-5.981 4.237-4.229 5.991 5.981-4.236 4.229z" data-color="1"></path>
        <path fill="#C6A105" d="M77.532 97.01H71.54V37.2h89.873v50.838h-5.992V43.181H77.532V97.01z" data-color="1"></path>
        <path fill="#C6A105" d="M131.455 55.143h-29.957V40.19h5.991v8.972h17.975V40.19h5.991v14.953z" data-color="1"></path>
        <path fill="#C6A105" d="M89.514 82.057v5.981h-5.991v-5.981h5.991z" data-color="1"></path>
        <path fill="#C6A105" d="M98.502 82.057v5.981h-5.991v-5.981h5.991z" data-color="1"></path>
        <path fill="#C6A105" d="M107.489 82.057v5.981h-5.991v-5.981h5.991z" data-color="1"></path>
    </g>
</svg>