<svg viewBox="31.200000762939453 29.200000762939453 137.59910583496094 141.60000610351562" height="200" width="200" xmlns="http://www.w3.org/2000/svg" data-type="color" role="img" preserveAspectRatio="xMidYMid meet" style="">
                        <g>
                            <path fill="#C6A105" d="M35.429 99.125L31.2 94.902 55.127 71.01l4.229 4.223-23.927 23.892z" data-color="1"></path>
                            <path fill="#C6A105" d="M104.218 170.8l-4.229-4.223 23.927-23.892 4.229 4.223-23.927 23.892z" data-color="1"></path>
                            <path d="M64.087 123.638l-16.917-8.446a2.984 2.984 0 0 1-1.338-4.007l4.229-8.446a2.992 2.992 0 0 1 3.166-1.61l25.378 4.223-.981 5.891-23.199-3.861-1.904 3.803 14.241 7.11-2.675 5.343z" fill="#C6A105" data-color="1"></path>
                            <path d="M86.577 153.517a2.99 2.99 0 0 1-2.678-1.651l-8.458-16.892 5.351-2.671 7.121 14.221 3.809-1.902-3.867-23.165 5.9-.98 4.229 25.341a2.984 2.984 0 0 1-1.612 3.161l-8.458 4.223a3.013 3.013 0 0 1-1.337.315z" fill="#C6A105" data-color="1"></path>
                            <path d="M94.297 91.402l-14.51-14.486-29.985-16.694a2.983 2.983 0 0 1-1.533-2.607v-8.446c0-.898.406-1.753 1.107-2.319a3.002 3.002 0 0 1 2.497-.604L122.4 61.027l-1.227 5.845L54.25 52.847v3.016l28.813 16.041c.24.134.461.3.657.496l14.805 14.781-4.228 4.221z" fill="#C6A105" data-color="1"></path>
                            <path d="M150.018 150.77h-8.458a2.988 2.988 0 0 1-2.611-1.531l-16.718-29.94-14.507-14.489 4.229-4.223 14.802 14.784c.196.195.362.417.497.656l16.064 28.771h3.02L132.29 77.973l5.853-1.225 14.802 70.424a2.974 2.974 0 0 1-.605 2.494 2.993 2.993 0 0 1-2.322 1.104z" fill="#C6A105" data-color="1"></path>
                            <path d="M65.405 139.489c-1.732 0-3.125-.545-4.209-1.627-3.131-3.126-1.776-8.811 4.261-17.89 3.923-5.897 9.72-12.967 14.773-18.009l57.1-57.017c5.485-5.477 22.685-19.572 29.607-12.672 6.902 6.897-7.205 24.087-12.691 29.564l-57.1 57.017c-5.05 5.045-12.13 10.835-18.036 14.751-5.942 3.941-10.431 5.883-13.705 5.883zm.114-5.944c3.557.26 17.159-8.685 27.399-18.913l57.1-57.017c9.773-9.758 13.949-19.858 12.691-21.118-1.253-1.257-11.373 2.914-21.149 12.672l-57.1 57.017c-10.249 10.231-19.181 23.88-18.941 27.359z" fill="#C6A105" data-color="1"></path>
                            <path fill="#C6A105" d="M107.209 137.949l-4.229-4.223 11.963-11.946 4.229 4.223-11.963 11.946z" data-color="1"></path>
                            <path fill="#C6A105" d="M83.282 48.355l-4.229-4.223L94.007 29.2l4.23 4.223-14.955 14.932z" data-color="1"></path>
                        </g>
</svg>
